<?xml version="1.0" standalone="no"?>
<!DOCTYPE svg PUBLIC "-//W3C//DTD SVG 20010904//EN"
 "http://www.w3.org/TR/2001/REC-SVG-20010904/DTD/svg10.dtd">
<svg version="1.0" xmlns="http://www.w3.org/2000/svg"
 width="300.000000pt" height="373.000000pt" viewBox="0 0 300.000000 373.000000"
 preserveAspectRatio="xMidYMid meet">
<metadata>
Created by potrace 1.10, written by Peter Selinger 2001-2011
</metadata>
<g transform="translate(0.000000,373.000000) scale(0.100000,-0.100000)"
fill="#000000" stroke="none">
<path d="M547 3663 c-10 -9 -9 -111 1 -116 4 -3 5 19 4 49 -4 49 -2 54 17 54
11 0 25 -8 30 -17 6 -10 11 -13 11 -6 0 27 -46 54 -63 36z"/>
<path d="M805 3598 c-4 -35 -5 -81 -3 -103 4 -32 5 -28 7 20 1 33 5 77 10 98
5 20 5 39 1 42 -5 3 -11 -23 -15 -57z"/>
<path d="M840 3515 c0 -88 -4 -134 -10 -130 -5 3 -10 1 -10 -5 0 -7 6 -10 13
-8 8 3 14 41 18 124 3 65 7 125 10 133 2 7 -2 16 -8 18 -10 4 -13 -27 -13
-132z"/>
<path d="M889 3638 c-2 -7 -1 -47 2 -88 l5 -75 2 88 c2 81 -1 104 -9 75z"/>
<path d="M911 3518 c-1 -72 -4 -135 -7 -140 -3 -4 0 -8 5 -8 7 0 11 42 11 118
0 64 3 127 6 140 4 12 2 22 -4 22 -6 0 -10 -50 -11 -132z"/>
<path d="M555 3485 c3 -27 24 -143 45 -256 26 -140 44 -274 55 -415 9 -115 18
-218 22 -229 9 -32 44 -65 69 -65 53 0 57 74 14 245 -16 65 -35 157 -41 204
-7 47 -16 93 -20 101 -6 10 -7 4 -4 -15 2 -16 10 -64 16 -105 6 -41 24 -129
40 -195 32 -132 36 -182 16 -209 -19 -26 -55 -12 -72 27 -9 19 -20 117 -30
247 -8 118 -22 247 -30 285 -9 39 -29 149 -46 245 -17 96 -33 177 -36 180 -3
3 -2 -17 2 -45z"/>
<path d="M334 3486 c52 -53 66 -109 63 -256 l-2 -125 53 -105 c28 -58 61 -116
72 -130 11 -14 -11 35 -48 108 l-67 133 3 130 c3 113 0 135 -18 177 -21 46
-65 102 -82 102 -5 0 7 -15 26 -34z"/>
<path d="M866 3463 c-8 -52 -8 -93 2 -93 4 0 8 29 9 65 3 73 -1 84 -11 28z"/>
<path d="M144 3455 c-8 -33 3 -90 26 -135 20 -40 92 -115 124 -132 12 -5 -5
14 -36 44 -72 67 -102 125 -102 195 0 59 -3 65 -12 28z"/>
<path d="M796 3404 c-10 -40 15 -146 31 -131 2 3 -1 15 -7 28 -7 12 -12 46
-12 76 0 59 -3 66 -12 27z"/>
<path d="M1024 3355 c-22 -17 -12 -20 17 -4 28 14 57 2 74 -31 17 -33 20 -103
5 -131 -7 -13 -7 -19 -1 -19 6 0 13 12 17 28 3 15 8 34 10 42 6 25 -14 81 -38
107 -25 26 -55 30 -84 8z"/>
<path d="M901 3278 l-34 -72 7 -155 c3 -86 10 -174 16 -196 9 -38 9 -37 4 15
-2 30 -7 117 -10 192 l-7 137 32 66 c18 36 31 70 29 75 -2 5 -18 -23 -37 -62z"/>
<path d="M982 3313 c-20 -39 -23 -91 -7 -135 37 -99 37 -107 12 -226 -14 -63
-21 -110 -17 -105 5 4 19 57 31 117 l23 108 -22 62 c-24 66 -28 135 -11 168 6
11 8 22 6 25 -3 2 -10 -4 -15 -14z"/>
<path d="M682 3250 c0 -25 3 -70 8 -100 l7 -55 0 70 c1 39 -3 84 -7 100 -7 27
-8 25 -8 -15z"/>
<path d="M837 3075 c-4 -55 -12 -134 -17 -175 -11 -89 -22 -289 -15 -275 2 6
9 66 15 135 5 69 15 176 20 239 6 63 10 128 8 145 -2 17 -7 -14 -11 -69z"/>
<path d="M1031 3043 c-6 -21 -13 -94 -15 -163 l-5 -125 13 140 c7 77 16 150
20 163 4 12 5 22 2 22 -3 0 -10 -17 -15 -37z"/>
<path d="M451 2900 c-3 -53 105 -344 138 -374 10 -9 2 15 -21 60 -21 42 -52
122 -69 178 -42 138 -47 153 -48 136z"/>
<path d="M957 2823 c-12 -21 -38 -128 -43 -181 -7 -64 5 -102 34 -102 13 0 11
4 -7 16 -22 16 -23 22 -17 78 3 34 15 92 25 129 18 60 20 81 8 60z"/>
<path d="M891 2705 c-1 -130 -6 -149 -34 -163 -18 -9 -19 -11 -5 -11 10 -1 24
9 32 22 16 26 28 200 16 237 -5 16 -8 -14 -9 -85z"/>
<path d="M610 2699 c0 -3 11 -33 25 -67 31 -76 32 -112 5 -119 -11 -3 -20 -9
-20 -14 0 -12 7 -11 31 1 25 14 25 54 -2 127 -19 50 -39 88 -39 72z"/>
<path d="M1860 1771 c-14 -28 -13 -36 5 -21 8 7 22 10 30 6 27 -10 16 -25 -22
-28 -33 -3 -41 -10 -91 -83 l-54 -80 4 -110 c6 -146 31 -216 90 -246 64 -33
137 -36 192 -9 67 32 99 78 104 151 6 75 -9 134 -60 234 -45 90 -67 118 -108
135 -16 6 -34 25 -40 41 -14 33 -35 38 -50 10z m72 -77 c39 -20 58 -44 92
-109 69 -134 84 -230 47 -292 -11 -17 -41 -44 -66 -58 -51 -30 -94 -31 -156
-1 -61 29 -94 124 -87 253 3 73 6 82 46 140 39 57 64 82 85 83 4 0 22 -7 39
-16z"/>
<path d="M2134 1505 c0 -55 1 -76 3 -47 2 29 2 74 0 100 -2 26 -3 2 -3 -53z"/>
<path d="M1655 1493 c6 -38 50 -143 58 -143 3 0 -3 21 -13 48 -10 26 -21 66
-25 90 -4 23 -11 42 -17 42 -6 0 -8 -14 -3 -37z"/>
<path d="M1690 1326 c0 -16 30 -62 51 -81 13 -11 19 -13 12 -5 -6 8 -22 33
-37 54 -14 21 -26 36 -26 32z"/>
<path d="M1789 1171 c24 -23 49 -41 55 -41 6 0 4 5 -4 11 -11 7 -4 8 25 4 40
-5 40 -5 -7 9 -25 7 -61 23 -80 36 -28 18 -26 15 11 -19z"/>
<path d="M2095 1154 c-27 -13 -59 -24 -70 -24 -11 0 -27 -5 -35 -11 -11 -7 -4
-8 25 -3 41 6 145 48 145 58 0 10 -12 6 -65 -20z"/>
<path d="M2142 1059 c-64 -59 -107 -72 -223 -67 -53 2 -81 0 -72 -6 8 -4 59
-6 112 -4 83 3 103 7 141 31 59 35 114 83 103 90 -4 3 -32 -17 -61 -44z"/>
<path d="M1802 1048 c16 -16 36 -28 46 -28 11 1 7 6 -13 17 -16 8 -37 21 -46
27 -8 6 -2 -1 13 -16z"/>
<path d="M1516 895 c8 -21 9 -27 6 -205 -1 -58 2 -121 7 -140 6 -23 8 24 7
145 -1 127 -6 186 -15 200 -13 20 -13 20 -5 0z"/>
<path d="M2533 885 c-11 -8 -28 -33 -37 -56 -17 -41 -47 -214 -45 -254 1 -11
9 27 19 85 26 153 36 185 71 214 33 28 27 36 -8 11z"/>
<path d="M2071 820 c0 -19 4 -55 8 -80 l8 -45 1 60 c0 33 -3 69 -8 80 -7 16
-9 13 -9 -15z"/>
<path d="M2103 765 c0 -33 2 -45 4 -27 2 18 2 45 0 60 -2 15 -4 0 -4 -33z"/>
<path d="M1823 756 c11 -16 23 -49 27 -75 6 -39 8 -41 9 -13 1 37 -21 96 -40
108 -9 5 -7 -3 4 -20z"/>
<path d="M1725 721 c3 -35 11 -51 41 -80 l38 -36 -32 38 c-17 20 -34 47 -36
60 -12 54 -15 59 -11 18z"/>
<path d="M2096 652 c-12 -26 -16 -55 -13 -92 l3 -55 2 58 c1 32 9 72 18 88 8
17 14 33 11 35 -2 2 -12 -13 -21 -34z"/>
<path d="M2001 523 c-1 -12 9 -66 20 -119 16 -71 18 -99 10 -107 -23 -23 -39
16 -50 123 l-10 105 4 -95 c2 -57 0 -87 -5 -75 -13 30 -12 3 1 -35 9 -26 9
-34 -2 -41 -9 -6 -10 -9 -2 -9 6 0 15 5 18 10 4 6 15 8 24 5 21 -6 36 9 45 48
4 19 3 26 -4 22 -5 -3 -10 -3 -10 2 -1 23 -39 185 -39 166z"/>
<path d="M2114 404 l-8 -39 -6 35 c-5 28 -7 21 -11 -35 -3 -60 -1 -71 12 -71
11 0 14 7 11 23 -2 13 1 44 7 69 7 26 10 49 7 51 -3 3 -8 -12 -12 -33z"/>
<path d="M1631 380 c-1 -39 18 -96 40 -122 l21 -23 -16 28 c-9 15 -23 53 -30
85 -8 31 -15 46 -15 32z"/>
<path d="M2291 330 c-1 -14 -10 -36 -21 -50 -25 -32 -25 -40 3 -39 16 1 17 3
5 6 -16 4 -16 7 3 32 13 17 19 38 16 52 l-4 24 -2 -25z"/>
<path d="M1728 221 c-35 -4 -64 -13 -75 -24 -17 -17 -17 -17 14 -2 43 22 292
31 393 15 41 -6 102 -14 135 -17 42 -4 68 -12 87 -29 16 -12 37 -25 48 -29 13
-4 20 -15 20 -33 0 -19 3 -23 11 -15 32 32 -75 109 -166 119 -33 3 -80 9 -104
14 -52 9 -282 10 -363 1z"/>
<path d="M1952 119 c-1 -14 -5 -48 -8 -75 -5 -37 -4 -46 5 -38 8 7 11 34 8 75
-2 35 -4 52 -5 38z"/>
<path d="M2196 63 c4 -27 11 -52 16 -58 6 -6 7 1 3 20 l-6 30 15 -30 c14 -26
15 -26 10 -5 -9 35 -32 90 -38 90 -3 0 -3 -21 0 -47z"/>
</g>
</svg>
