<?xml version="1.0" standalone="no"?>
<!DOCTYPE svg PUBLIC "-//W3C//DTD SVG 20010904//EN"
 "http://www.w3.org/TR/2001/REC-SVG-20010904/DTD/svg10.dtd">
<svg version="1.0" xmlns="http://www.w3.org/2000/svg"
 width="1170.000000pt" height="1454.000000pt" viewBox="0 0 1170.000000 1454.000000"
 preserveAspectRatio="xMidYMid meet">

<g transform="translate(0.000000,1454.000000) scale(0.100000,-0.100000)"
fill="#000000" stroke="none">
<path d="M2164 14273 c-52 -10 -75 -82 -56 -173 9 -42 10 -39 11 41 1 70 4 89
19 102 10 10 26 17 35 17 9 0 19 5 22 10 3 6 3 9 -2 9 -4 -1 -18 -4 -29 -6z"/>
<path d="M2305 14226 c19 -18 35 -38 35 -45 0 -6 5 -11 10 -11 6 0 10 2 10 5
0 9 -72 85 -81 85 -4 0 8 -15 26 -34z"/>
<path d="M3166 14188 c-3 -23 -10 -115 -16 -203 -6 -88 -12 -181 -15 -207 -2
-26 1 -50 6 -53 5 -4 9 20 9 55 0 34 7 147 15 252 9 105 14 193 11 195 -2 3
-7 -15 -10 -39z"/>
<path d="M3312 14217 c-7 -8 -13 -145 -17 -392 -8 -472 -18 -641 -41 -667 -10
-10 -12 -18 -7 -18 6 0 15 6 21 13 17 20 30 235 38 587 6 308 10 447 13 463 0
4 8 7 16 7 12 0 15 -37 18 -247 l2 -248 3 251 c2 222 0 253 -14 258 -21 8 -20
8 -32 -7z"/>
<path d="M3473 14205 c3 -11 8 -103 11 -205 10 -316 18 -430 28 -424 5 3 7 13
4 21 -4 8 -11 148 -17 311 -6 182 -14 301 -21 307 -7 7 -9 4 -5 -10z"/>
<path d="M3590 14203 c0 -6 5 -15 10 -18 6 -3 10 -15 10 -25 0 -10 5 -22 10
-25 18 -11 11 32 -10 56 -10 13 -19 19 -20 12z"/>
<path d="M3428 13983 c-2 -65 -5 -275 -6 -468 -2 -206 -7 -354 -12 -359 -25
-25 -35 18 -41 162 l-5 147 -2 -143 c-1 -84 2 -151 8 -163 13 -24 46 -25 55
-2 7 19 18 943 11 943 -2 0 -6 -53 -8 -117z"/>
<path d="M2115 14023 c2 -16 7 -50 10 -76 4 -27 9 -46 12 -44 8 9 -8 147 -18
147 -5 0 -7 -12 -4 -27z"/>
<path d="M3564 13669 c3 -200 2 -399 -2 -442 -7 -68 -6 -76 6 -60 12 15 13 91
9 436 -2 230 -7 421 -11 424 -3 4 -4 -157 -2 -358z"/>
<path d="M3134 13625 c0 -49 1 -71 3 -48 2 23 2 64 0 90 -2 26 -3 8 -3 -42z"/>
<path d="M2182 13550 c0 -14 2 -19 5 -12 2 6 2 18 0 25 -3 6 -5 1 -5 -13z"/>
<path d="M1398 13510 c11 -19 33 -57 49 -85 39 -67 98 -216 114 -290 9 -39 13
-124 13 -240 0 -169 -6 -228 -44 -440 -23 -130 52 -396 196 -693 46 -96 87
-173 90 -169 3 3 -15 45 -39 94 -77 150 -134 283 -175 408 -70 211 -74 270
-36 495 13 77 18 160 19 310 0 185 -2 213 -23 285 -27 92 -119 286 -158 330
l-26 30 20 -35z"/>
<path d="M576 13473 c-15 -93 0 -257 35 -378 19 -69 98 -217 157 -295 61 -81
191 -216 260 -269 70 -54 46 -20 -31 44 -147 121 -275 288 -341 442 -56 131
-70 202 -70 356 -1 75 -2 137 -2 137 -1 0 -4 -17 -8 -37z"/>
<path d="M2206 13412 c3 -29 10 -65 14 -80 l8 -27 1 25 c0 14 -6 50 -14 80
l-15 55 6 -53z"/>
<path d="M3502 13297 c3 -109 7 -130 23 -145 18 -16 18 -16 5 1 -9 12 -13 54
-14 136 -1 66 -5 123 -10 128 -4 4 -6 -48 -4 -120z"/>
<path d="M3116 13274 c-19 -141 4 -326 53 -421 16 -32 30 -54 31 -50 0 4 -9
25 -19 45 -40 79 -53 159 -52 320 0 83 -1 152 -3 152 -2 0 -6 -21 -10 -46z"/>
<path d="M2230 13279 c-1 -26 124 -711 128 -701 3 9 -24 174 -63 382 -9 47
-25 139 -36 205 -19 111 -29 149 -29 114z"/>
<path d="M3211 13174 c0 -11 3 -14 6 -6 3 7 2 16 -1 19 -3 4 -6 -2 -5 -13z"/>
<path d="M4129 13111 c12 -8 51 -4 51 5 0 2 -15 4 -32 4 -23 0 -29 -3 -19 -9z"/>
<path d="M4038 13089 c-42 -21 -51 -34 -15 -20 66 27 91 40 72 40 -11 0 -37
-9 -57 -20z"/>
<path d="M4235 13086 c54 -26 109 -79 144 -139 31 -56 61 -172 61 -240 0 -37
4 -56 10 -52 6 4 8 27 4 58 -23 196 -100 337 -206 381 -59 25 -68 18 -13 -8z"/>
<path d="M3631 12994 c0 -11 3 -14 6 -6 3 7 2 16 -1 19 -3 4 -6 -2 -5 -13z"/>
<path d="M3612 12913 c-8 -29 -37 -86 -67 -131 -72 -106 -93 -150 -117 -240
-18 -70 -20 -108 -21 -412 0 -251 4 -377 17 -500 22 -214 53 -443 55 -405 1
30 -4 74 -36 340 -23 186 -26 877 -4 970 18 81 51 152 101 220 49 67 92 159
88 189 -2 13 -8 1 -16 -31z"/>
<path d="M3825 12864 c-30 -73 -45 -159 -45 -270 0 -130 16 -193 87 -344 24
-52 51 -120 59 -150 16 -61 18 -176 5 -265 -5 -33 -12 -80 -15 -105 l-6 -45
15 50 c21 69 31 285 16 355 -7 30 -34 102 -60 160 -81 174 -86 195 -85 360 0
132 3 151 27 215 28 73 29 104 2 39z"/>
<path d="M2680 12719 c2 -157 21 -539 29 -564 9 -26 9 -23 5 20 -2 28 -9 169
-15 315 -5 145 -12 266 -14 269 -3 2 -5 -16 -5 -40z"/>
<path d="M4404 12482 c-17 -48 -34 -96 -38 -107 -4 -11 2 -4 13 15 24 42 64
156 59 170 -2 5 -17 -29 -34 -78z"/>
<path d="M2361 12535 c1 -11 5 -31 9 -45 8 -24 8 -24 9 5 0 17 -4 37 -9 45 -8
12 -10 11 -9 -5z"/>
<path d="M2381 12448 c-1 -10 13 -82 30 -160 89 -419 109 -594 164 -1448 9
-134 18 -247 20 -250 2 -3 9 -94 15 -201 11 -208 33 -328 71 -395 23 -41 98
-124 111 -124 4 0 -12 20 -35 44 -88 89 -119 196 -131 456 -4 74 -13 191 -21
260 -7 69 -16 186 -20 260 -3 74 -10 182 -15 240 -5 58 -12 150 -15 205 -12
234 -52 570 -90 745 -7 36 -23 112 -35 170 -31 148 -48 218 -49 198z"/>
<path d="M3280 12087 c0 -88 -43 -607 -66 -787 -38 -307 -66 -650 -63 -760 2
-51 11 50 29 310 7 96 20 236 31 310 39 286 93 980 75 980 -3 0 -6 -24 -6 -53z"/>
<path d="M4032 11868 c-23 -91 -46 -343 -72 -773 -5 -93 -12 -197 -14 -230 -2
-37 -1 -52 4 -40 5 11 9 52 9 91 1 40 5 116 10 170 6 55 13 146 16 204 14 244
44 538 61 598 3 12 4 22 1 22 -2 0 -9 -19 -15 -42z"/>
<path d="M2751 11724 c0 -11 3 -14 6 -6 3 7 2 16 -1 19 -3 4 -6 -2 -5 -13z"/>
<path d="M3896 11645 c-5 -22 -24 -110 -42 -195 -32 -145 -39 -189 -30 -179 9
10 87 375 83 393 -2 14 -6 8 -11 -19z"/>
<path d="M2772 11605 c0 -16 2 -22 5 -12 2 9 2 23 0 30 -3 6 -5 -1 -5 -18z"/>
<path d="M1850 11522 c18 -34 37 -65 43 -69 12 -7 -48 105 -65 122 -6 6 4 -18
22 -53z"/>
<path d="M2792 11480 c0 -14 2 -19 5 -12 2 6 2 18 0 25 -3 6 -5 1 -5 -13z"/>
<path d="M1900 11438 c0 -7 56 -107 93 -165 50 -78 37 -44 -20 55 -55 95 -73
122 -73 110z"/>
<path d="M2812 11355 c0 -16 2 -22 5 -12 2 9 2 23 0 30 -3 6 -5 -1 -5 -18z"/>
<path d="M2825 11271 c3 -29 20 -112 36 -185 17 -72 34 -149 39 -171 4 -22 31
-125 59 -229 80 -298 102 -450 90 -626 -6 -103 -23 -150 -67 -187 -15 -13 -22
-23 -17 -23 17 1 52 34 68 66 25 49 40 179 32 289 -7 112 -39 283 -85 455 -65
246 -84 321 -121 490 -22 96 -37 151 -34 121z"/>
<path d="M1770 11265 c0 -3 29 -110 64 -238 88 -318 192 -621 281 -822 42 -95
135 -279 147 -290 7 -7 7 -4 0 10 -180 358 -301 680 -426 1135 -14 52 -33 121
-42 153 -13 48 -24 72 -24 52z"/>
<path d="M3715 10908 c-9 -35 -30 -101 -45 -148 -58 -174 -84 -305 -100 -506
-12 -158 0 -242 43 -296 23 -29 29 -20 8 10 -71 97 -46 445 54 767 50 162 67
226 62 231 -2 3 -12 -24 -22 -58z"/>
<path d="M3497 10565 c-6 -345 -19 -510 -45 -576 -5 -14 -23 -41 -38 -60 -17
-20 -21 -28 -9 -19 34 26 54 54 65 90 32 105 60 654 43 835 -8 74 -10 27 -16
-270z"/>
<path d="M3144 10479 c-3 -6 -1 -16 5 -22 8 -8 11 -5 11 11 0 24 -5 28 -16 11z"/>
<path d="M3144 10350 c0 -52 1 -74 3 -47 2 26 2 68 0 95 -2 26 -3 4 -3 -48z"/>
<path d="M2441 10422 c-1 -7 6 -29 15 -50 9 -20 43 -111 77 -202 56 -152 61
-172 61 -250 1 -47 -2 -94 -7 -105 -4 -11 2 -2 13 20 33 65 20 130 -73 380
-59 159 -86 223 -86 207z"/>
<path d="M2840 9850 c0 -5 5 -10 11 -10 5 0 7 5 4 10 -3 6 -8 10 -11 10 -2 0
-4 -4 -4 -10z"/>
<path d="M2888 9843 c12 -2 32 -2 45 0 12 2 2 4 -23 4 -25 0 -35 -2 -22 -4z"/>
<path d="M2510 9749 c0 -5 5 -7 10 -4 6 3 10 8 10 11 0 2 -4 4 -10 4 -5 0 -10
-5 -10 -11z"/>
<path d="M7350 6749 c-177 -17 -164 -10 -257 -139 -136 -189 -270 -393 -309
-470 l-37 -71 2 -312 c1 -304 7 -384 37 -499 46 -182 136 -395 192 -459 75
-86 350 -187 552 -204 121 -10 274 40 419 137 112 76 249 230 281 316 68 182
62 458 -17 697 -73 223 -335 762 -399 819 -48 43 -185 131 -249 161 -69 31
-98 35 -215 24z"/>
<path d="M8103 3220 c0 -36 2 -50 4 -32 2 17 2 47 0 65 -2 17 -4 3 -4 -33z"/>
<path d="M8141 3144 c0 -11 3 -14 6 -6 3 7 2 16 -1 19 -3 4 -6 -2 -5 -13z"/>
<path d="M8103 3095 c0 -33 2 -45 4 -27 2 18 2 45 0 60 -2 15 -4 0 -4 -33z"/>
<path d="M8214 2995 c0 -55 1 -76 3 -47 2 29 2 74 0 100 -2 26 -3 2 -3 -53z"/>
<path d="M8061 2134 c0 -11 3 -14 6 -6 3 7 2 16 -1 19 -3 4 -6 -2 -5 -13z"/>
<path d="M8151 1894 c0 -11 3 -14 6 -6 3 7 2 16 -1 19 -3 4 -6 -2 -5 -13z"/>
<path d="M8412 1810 c0 -19 2 -27 5 -17 2 9 2 25 0 35 -3 9 -5 1 -5 -18z"/>
<path d="M8013 1625 c0 -22 2 -30 4 -17 2 12 2 30 0 40 -3 9 -5 -1 -4 -23z"/>
<path d="M7721 1524 c0 -11 3 -14 6 -6 3 7 2 16 -1 19 -3 4 -6 -2 -5 -13z"/>
<path d="M8213 1270 c0 -30 2 -43 4 -27 2 15 2 39 0 55 -2 15 -4 2 -4 -28z"/>
</g>
</svg>
